<svg width="24" height="25" viewBox="0 0 24 25" fill="none" xmlns="http://www.w3.org/2000/svg">
<path fill-rule="evenodd" clip-rule="evenodd" d="M13.25 3.14404C13.25 2.72983 13.5858 2.39404 14 2.39404H18C20.0711 2.39404 21.75 4.07298 21.75 6.14404V9.14404C21.75 9.55826 21.4142 9.89404 21 9.89404C20.5858 9.89404 20.25 9.55826 20.25 9.14404V6.14404C20.25 4.9014 19.2426 3.89404 18 3.89404H14C13.5858 3.89404 13.25 3.55826 13.25 3.14404ZM3 13.394C3.41421 13.394 3.75 13.7298 3.75 14.144V18.144C3.75 19.3867 4.75736 20.394 6 20.394H9C9.41421 20.394 9.75 20.7298 9.75 21.144C9.75 21.5583 9.41421 21.894 9 21.894H6C3.92893 21.894 2.25 20.2151 2.25 18.144V14.144C2.25 13.7298 2.58579 13.394 3 13.394ZM3.27827 2.39404C2.73096 2.39404 2.28262 2.82877 2.26575 3.37581C2.24887 3.92285 2.66957 4.38438 3.21583 4.41812C3.25742 4.42068 3.29912 4.42068 3.3407 4.41812C3.88697 4.38438 4.30766 3.92285 4.29079 3.37581C4.27391 2.82877 3.82557 2.39404 3.27827 2.39404ZM6.48064 2.39479C6.89471 2.38409 7.23906 2.71109 7.24975 3.12517C7.30913 5.42355 5.49406 7.33489 3.19568 7.39429C3.124 7.39614 3.0523 7.39614 2.98061 7.39429C2.56654 7.38358 2.23955 7.03922 2.25026 6.62514C2.26097 6.21107 2.60532 5.88408 3.0194 5.89479C3.06524 5.89597 3.11107 5.89597 3.15689 5.89479L3.15692 5.89479C4.62716 5.8568 5.78824 4.63415 5.75026 3.1639C5.73956 2.74983 6.06656 2.40548 6.48064 2.39479ZM10.75 3.14921C10.7526 2.735 10.4189 2.39713 10.0047 2.39455C9.59047 2.39196 9.2526 2.72565 9.25002 3.13986C9.24528 3.89999 9.11542 4.65415 8.86564 5.37209L8.86534 5.37297C8.27435 7.0785 6.93397 8.41889 5.22844 9.00987L5.22822 9.00995C4.50967 9.25918 3.75516 9.3891 2.99463 9.39455C2.58043 9.39752 2.24705 9.7357 2.25002 10.1499C2.25299 10.5641 2.59117 10.8975 3.00537 10.8945C3.92962 10.8879 4.84655 10.73 5.71978 10.4271C7.8594 9.68564 9.54097 8.00412 10.2825 5.86453C10.5863 4.99121 10.7442 4.07384 10.75 3.14921ZM13.25 15.0376C13.2616 15.0212 13.2868 14.9914 13.3375 14.9486C13.4715 14.8354 13.71 14.6997 14.0703 14.571C14.7843 14.316 15.82 14.144 17 14.144C18.18 14.144 19.2157 14.316 19.9297 14.571C20.29 14.6997 20.5285 14.8354 20.6625 14.9486C20.7132 14.9914 20.7384 15.0212 20.75 15.0376V16.2505C20.7384 16.2669 20.7132 16.2968 20.6625 16.3395C20.5285 16.4527 20.29 16.5884 19.9297 16.7171C19.2157 16.9721 18.18 17.1441 17 17.1441C15.82 17.1441 14.7843 16.9721 14.0703 16.7171C13.71 16.5884 13.4715 16.4527 13.3375 16.3395C13.2868 16.2968 13.2616 16.2669 13.25 16.2505V15.0376ZM11.75 16.2869V15.0012C11.75 14.4729 12.0518 14.071 12.3698 13.8025C12.6911 13.5311 13.1117 13.3205 13.5658 13.1584C14.4804 12.8317 15.6947 12.644 17 12.644C18.3053 12.644 19.5196 12.8317 20.4342 13.1584C20.8883 13.3205 21.3089 13.5311 21.6302 13.8025C21.9482 14.071 22.25 14.4729 22.25 15.0012V16.2869V19.7869C22.25 20.3152 21.9482 20.7171 21.6302 20.9856C21.3089 21.257 20.8883 21.4676 20.4342 21.6297C19.5196 21.9563 18.3053 22.144 17 22.144C15.6947 22.144 14.4804 21.9563 13.5658 21.6297C13.1117 21.4676 12.6911 21.257 12.3698 20.9856C12.0518 20.7171 11.75 20.3152 11.75 19.7869V16.2869ZM20.75 18.0063V19.7505C20.7384 19.7669 20.7132 19.7967 20.6625 19.8395C20.5285 19.9527 20.29 20.0884 19.9297 20.2171C19.2157 20.4721 18.18 20.644 17 20.644C15.82 20.644 14.7843 20.4721 14.0703 20.2171C13.71 20.0884 13.4715 19.9527 13.3375 19.8395C13.2868 19.7967 13.2616 19.7669 13.25 19.7505V18.0063C13.3528 18.0503 13.4584 18.0914 13.5658 18.1297C14.4804 18.4564 15.6947 18.6441 17 18.6441C18.3053 18.6441 19.5196 18.4564 20.4342 18.1297C20.5416 18.0914 20.6472 18.0503 20.75 18.0063Z" fill="#FF7674"/>
</svg>
