<svg width="24" height="25" viewBox="0 0 24 25" fill="none" xmlns="http://www.w3.org/2000/svg">
<path fill-rule="evenodd" clip-rule="evenodd" d="M3.75 4.64404C3.75 4.22983 4.08579 3.89404 4.5 3.89404H19.5C19.9142 3.89404 20.25 4.22983 20.25 4.64404V8.14404C20.25 8.55826 20.5858 8.89404 21 8.89404C21.4142 8.89404 21.75 8.55826 21.75 8.14404V4.64404C21.75 3.4014 20.7426 2.39404 19.5 2.39404H4.5C3.25736 2.39404 2.25 3.4014 2.25 4.64404V9.64404C2.25 10.2203 2.46664 10.746 2.82292 11.144C2.46664 11.5421 2.25 12.0678 2.25 12.644V17.644C2.25 18.8867 3.25736 19.894 4.5 19.894H9C9.41421 19.894 9.75 19.5583 9.75 19.144C9.75 18.7298 9.41421 18.394 9 18.394H4.5C4.08579 18.394 3.75 18.0583 3.75 17.644V12.644C3.75 12.2298 4.08579 11.894 4.5 11.894H9C9.41421 11.894 9.75 11.5583 9.75 11.144C9.75 10.7298 9.41421 10.394 9 10.394H4.5C4.08579 10.394 3.75 10.0583 3.75 9.64404V4.64404ZM7.25 6.65656C7.25 6.24234 6.91421 5.90656 6.5 5.90656C6.08579 5.90656 5.75 6.24234 5.75 6.65656V7.65656C5.75 8.07077 6.08579 8.40656 6.5 8.40656C6.91421 8.40656 7.25 8.07077 7.25 7.65656V6.65656ZM12.25 7.15656C12.25 6.74234 12.5858 6.40656 13 6.40656H18.0125C18.4267 6.40656 18.7625 6.74234 18.7625 7.15656C18.7625 7.57077 18.4267 7.90656 18.0125 7.90656H13C12.5858 7.90656 12.25 7.57077 12.25 7.15656ZM6.4873 13.8816C6.90152 13.8816 7.2373 14.2174 7.2373 14.6316V15.6316C7.2373 16.0458 6.90152 16.3816 6.4873 16.3816C6.07309 16.3816 5.7373 16.0458 5.7373 15.6316V14.6316C5.7373 14.2174 6.07309 13.8816 6.4873 13.8816ZM9.5 5.90656C9.91421 5.90656 10.25 6.24234 10.25 6.65656V7.65656C10.25 8.07077 9.91421 8.40656 9.5 8.40656C9.08579 8.40656 8.75 8.07077 8.75 7.65656V6.65656C8.75 6.24234 9.08579 5.90656 9.5 5.90656ZM16.7803 15.3637L15.5303 14.1137C15.2374 13.8208 14.7626 13.8208 14.4697 14.1137C14.1768 14.4066 14.1768 14.8815 14.4697 15.1744L15.1893 15.894L14.4697 16.6137C14.1768 16.9066 14.1768 17.3815 14.4697 17.6744C14.7626 17.9673 15.2374 17.9673 15.5303 17.6744L16.7803 16.4244C17.0732 16.1315 17.0732 15.6566 16.7803 15.3637ZM17.25 17.644C17.25 17.2298 17.5858 16.894 18 16.894H19C19.4142 16.894 19.75 17.2298 19.75 17.644C19.75 18.0583 19.4142 18.394 19 18.394H18C17.5858 18.394 17.25 18.0583 17.25 17.644ZM15 10.394C12.9289 10.394 11.25 12.073 11.25 14.144V18.144C11.25 20.2151 12.9289 21.894 15 21.894H19C21.0711 21.894 22.75 20.2151 22.75 18.144V14.144C22.75 12.073 21.0711 10.394 19 10.394H15ZM12.75 14.144C12.75 12.9014 13.7574 11.894 15 11.894H19C20.2426 11.894 21.25 12.9014 21.25 14.144V18.144C21.25 19.3867 20.2426 20.394 19 20.394H15C13.7574 20.394 12.75 19.3867 12.75 18.144V14.144Z" fill="#FF7674"/>
</svg>
