<svg width="24" height="25" viewBox="0 0 24 25" fill="none" xmlns="http://www.w3.org/2000/svg">
<rect x="0.5" y="0.644043" width="23" height="23" stroke="white"/>
<path fill-rule="evenodd" clip-rule="evenodd" d="M3.75 6.14404C3.75 4.9014 4.75736 3.89404 6 3.89404H18C19.2426 3.89404 20.25 4.9014 20.25 6.14404V8.39404H3.75V6.14404ZM2.25 9.14404V6.14404C2.25 4.07298 3.92893 2.39404 6 2.39404H18C20.0711 2.39404 21.75 4.07298 21.75 6.14404V9.14404V12.144C21.75 12.5583 21.4142 12.894 21 12.894C20.5858 12.894 20.25 12.5583 20.25 12.144V9.89404H3.75V18.144C3.75 19.3867 4.75736 20.394 6 20.394H9C9.41421 20.394 9.75 20.7298 9.75 21.144C9.75 21.5583 9.41421 21.894 9 21.894H6C3.92893 21.894 2.25 20.2151 2.25 18.144V9.14404ZM11.5303 5.60871C11.2374 5.31581 10.7626 5.31581 10.4697 5.60871L10.4647 5.61371C10.1718 5.9066 10.1718 6.38147 10.4647 6.67437L10.4697 6.67937C10.7626 6.97226 11.2374 6.97226 11.5303 6.67937L11.5353 6.67437C11.8282 6.38147 11.8282 5.9066 11.5353 5.61371L11.5303 5.60871ZM7.96967 5.60871C8.26256 5.31581 8.73743 5.31581 9.03032 5.60871L9.03533 5.61371C9.32822 5.9066 9.32822 6.38147 9.03533 6.67437L9.03032 6.67937C8.73743 6.97226 8.26256 6.97226 7.96967 6.67937L7.96466 6.67437C7.67177 6.38147 7.67177 5.9066 7.96466 5.61371L7.96967 5.60871ZM6.53032 5.60871C6.23743 5.31581 5.76256 5.31581 5.46967 5.60871L5.46466 5.61371C5.17177 5.9066 5.17177 6.38147 5.46466 6.67437L5.46967 6.67937C5.76256 6.97226 6.23743 6.97226 6.53032 6.67937L6.53533 6.67437C6.82822 6.38147 6.82822 5.9066 6.53533 5.61371L6.53032 5.60871ZM13.2412 15.8026C13.241 15.8026 13.2416 15.8011 13.2432 15.7981C13.2421 15.8011 13.2413 15.8026 13.2412 15.8026ZM13.25 15.7876C13.2616 15.7712 13.2868 15.7414 13.3375 15.6986C13.4715 15.5854 13.71 15.4497 14.0703 15.321C14.7843 15.066 15.82 14.894 17 14.894C18.18 14.894 19.2157 15.066 19.9297 15.321C20.29 15.4497 20.5285 15.5854 20.6625 15.6986C20.7132 15.7414 20.7384 15.7712 20.75 15.7876V17.0005C20.7384 17.0169 20.7132 17.0468 20.6625 17.0895C20.5285 17.2027 20.29 17.3384 19.9297 17.4671C19.2157 17.7221 18.18 17.8941 17 17.8941C15.82 17.8941 14.7843 17.7221 14.0703 17.4671C13.71 17.3384 13.4715 17.2027 13.3375 17.0895C13.2868 17.0468 13.2616 17.0169 13.25 17.0005V15.7876ZM11.75 17.0369V15.7512C11.75 15.2229 12.0518 14.821 12.3698 14.5525C12.6911 14.2811 13.1117 14.0705 13.5658 13.9084C14.4804 13.5817 15.6947 13.394 17 13.394C18.3053 13.394 19.5196 13.5817 20.4342 13.9084C20.8883 14.0705 21.3089 14.2811 21.6302 14.5525C21.9482 14.821 22.25 15.2229 22.25 15.7512V17.0369V20.5369C22.25 21.0652 21.9482 21.4671 21.6302 21.7356C21.3089 22.007 20.8883 22.2176 20.4342 22.3797C19.5196 22.7063 18.3053 22.894 17 22.894C15.6947 22.894 14.4804 22.7063 13.5658 22.3797C13.1117 22.2176 12.6911 22.007 12.3698 21.7356C12.0518 21.4671 11.75 21.0652 11.75 20.5369V17.0369ZM20.75 18.7563V20.5005C20.7384 20.5169 20.7132 20.5467 20.6625 20.5895C20.5285 20.7027 20.29 20.8384 19.9297 20.9671C19.2157 21.2221 18.18 21.394 17 21.394C15.82 21.394 14.7843 21.2221 14.0703 20.9671C13.71 20.8384 13.4715 20.7027 13.3375 20.5895C13.2868 20.5467 13.2616 20.5169 13.25 20.5005V18.7563C13.3528 18.8003 13.4584 18.8414 13.5658 18.8797C14.4804 19.2064 15.6947 19.3941 17 19.3941C18.3053 19.3941 19.5196 19.2064 20.4342 18.8797C20.5416 18.8414 20.6472 18.8003 20.75 18.7563ZM13.2412 20.4855C13.2413 20.4855 13.2421 20.487 13.2432 20.49C13.2416 20.487 13.241 20.4855 13.2412 20.4855ZM20.7588 20.4855C20.7589 20.4855 20.7589 20.4857 20.7587 20.486C20.7586 20.4864 20.7584 20.4869 20.758 20.4876C20.7577 20.4883 20.7573 20.489 20.7568 20.49C20.7579 20.487 20.7587 20.4855 20.7588 20.4855ZM20.7588 15.8026C20.7587 15.8026 20.7579 15.8011 20.7568 15.7981C20.7584 15.8011 20.759 15.8026 20.7588 15.8026Z" fill="#002B5A"/>
</svg>
