<svg width="24" height="25" viewBox="0 0 24 25" fill="none" xmlns="http://www.w3.org/2000/svg">
<path fill-rule="evenodd" clip-rule="evenodd" d="M4 1.39404C3.0335 1.39404 2.25 2.17754 2.25 3.14404V6.14404C2.25 7.11054 3.0335 7.89404 4 7.89404H4.75V13.394H4C3.0335 13.394 2.25 14.1775 2.25 15.144V18.144C2.25 19.1105 3.0335 19.894 4 19.894H7C7.9665 19.894 8.75 19.1105 8.75 18.144V17.394H10C10.4142 17.394 10.75 17.0583 10.75 16.644C10.75 16.2298 10.4142 15.894 10 15.894H8.75V15.144C8.75 14.1775 7.9665 13.394 7 13.394H6.25V7.89404H7C7.9665 7.89404 8.75 7.11054 8.75 6.14404V5.39404H14.25V6.14404C14.25 7.11054 15.0335 7.89404 16 7.89404H16.75V9.14404C16.75 9.55826 17.0858 9.89404 17.5 9.89404C17.9142 9.89404 18.25 9.55826 18.25 9.14404V7.89404H19C19.9665 7.89404 20.75 7.11054 20.75 6.14404V3.14404C20.75 2.17754 19.9665 1.39404 19 1.39404H16C15.0335 1.39404 14.25 2.17754 14.25 3.14404V3.89404H8.75V3.14404C8.75 2.17754 7.9665 1.39404 7 1.39404H4ZM17.5 6.39404H19C19.1381 6.39404 19.25 6.28211 19.25 6.14404V3.14404C19.25 3.00597 19.1381 2.89404 19 2.89404H16C15.8619 2.89404 15.75 3.00597 15.75 3.14404V4.64404V6.14404C15.75 6.28211 15.8619 6.39404 16 6.39404H17.5ZM7.25 15.144V16.644V18.144C7.25 18.2821 7.13807 18.394 7 18.394H4C3.86193 18.394 3.75 18.2821 3.75 18.144V15.144C3.75 15.006 3.86193 14.894 4 14.894H5.5H7C7.13807 14.894 7.25 15.006 7.25 15.144ZM7.25 3.14404V4.64404V6.14404C7.25 6.28211 7.13807 6.39404 7 6.39404H5.5H4C3.86193 6.39404 3.75 6.28211 3.75 6.14404V3.14404C3.75 3.00597 3.86193 2.89404 4 2.89404H7C7.13807 2.89404 7.25 3.00597 7.25 3.14404ZM16 17.144C15.5858 17.144 15.25 17.4798 15.25 17.894C15.25 18.3083 15.5858 18.644 16 18.644H18C18.4142 18.644 18.75 18.3083 18.75 17.894C18.75 17.4798 18.4142 17.144 18 17.144H16ZM15.25 15.394C15.25 14.9798 15.5858 14.644 16 14.644H18C18.4142 14.644 18.75 14.9798 18.75 15.394C18.75 15.8083 18.4142 16.144 18 16.144H16C15.5858 16.144 15.25 15.8083 15.25 15.394ZM15 11.394C13.4812 11.394 12.25 12.6253 12.25 14.144V19.144C12.25 20.6628 13.4812 21.894 15 21.894H19C20.5188 21.894 21.75 20.6628 21.75 19.144V14.144C21.75 12.6253 20.5188 11.394 19 11.394H15ZM13.75 14.144C13.75 13.4537 14.3096 12.894 15 12.894H19C19.6904 12.894 20.25 13.4537 20.25 14.144V19.144C20.25 19.8344 19.6904 20.394 19 20.394H15C14.3096 20.394 13.75 19.8344 13.75 19.144V14.144Z" fill="#002B5A"/>
</svg>
